# xmcd
# Copyright (C) 1995-1998 Ti Kan
#
# Track frame offsets:
#       150
#       15700
#       31129
#       44623
#       60003
#       71866
#       85051
#       106099
#       125640
#       135925
#       154161
#       167300
#       184839
#       202315
#
# Disc length: 2893 seconds
#
# Revision: 0
# Processed by: cddbd v1.5.2PL0 Copyright (c) Steve Scherf et al.
# Submitted via: CD-Transfer v1.0
#
DISCID=b40b4b0e
DTITLE=Lole - Sugary And Dry
DYEAR=07
DGENRE=
TTITLE0=Instead
TTITLE1=Anyway
TTITLE2=A Home I Cannot Grasp
TTITLE3=Let It Go
TTITLE4=High And Low
TTITLE5=A Maybe Is Not A No
TTITLE6=Please
TTITLE7=Pay
TTITLE8=Both Roads Come Undone
TTITLE9=Crawl Alone
TTITLE10=Take Me Away
TTITLE11=Dawn
TTITLE12=Wake Up
TTITLE13=Missing
EXTD=
EXTT0=
EXTT1=
EXTT2=
EXTT3=
EXTT4=
EXTT5=
EXTT6=
EXTT7=
EXTT8=
EXTT9=
EXTT10=
EXTT11=
EXTT12=
EXTT13=
PLAYORDER=
